<svg width="80" height="80" viewBox="0 0 80 80" fill="none" xmlns="http://www.w3.org/2000/svg">
<path d="M40 69.875C23.5 69.875 10.125 56.5 10.125 40C10.125 23.5 23.5 10.125 40 10.125C56.5 10.125 69.875 23.5 69.875 40C69.875 56.5 56.5 69.875 40 69.875ZM40 13.375C25.375 13.375 13.375 25.375 13.375 40C13.375 54.625 25.375 66.625 40 66.625C54.625 66.625 66.625 54.625 66.625 40C66.625 25.375 54.625 13.375 40 13.375Z" fill="#C0D1DC"/>
<path d="M22.5 61.625L19.5 60.25C20.375 58.125 23.125 57 26.25 55.625C29.25 54.25 33 52.625 33 50.625V47.875C31.875 47 30.125 45 29.875 42.125C29 41.25 27.625 39.625 27.625 37.625C27.625 36.375 28.125 35.375 28.5 34.75C28.25 33.375 27.75 30.625 27.75 28.5C27.75 21.625 32.5 17.125 40 17.125C42.125 17.125 44.75 17.75 46.125 19.25C49.5 19.875 52.25 23.875 52.25 28.5C52.25 31.5 51.75 34 51.375 35.125C51.75 35.75 52.125 36.625 52.125 37.625C52.125 40 51 41.5 49.875 42.25C49.625 45.125 48 47 47 47.875V50.625C47 52.375 50.125 53.5 53 54.625C56.375 55.875 59.875 57.125 61 60L57.875 61.125C57.375 59.625 54.375 58.625 51.875 57.625C48 56.25 43.625 54.625 43.625 50.625V46.125L44.375 45.625C44.5 45.625 46.625 44.125 46.625 41.25V40.125L47.625 39.75C47.75 39.625 48.75 39.125 48.75 37.625C48.75 37.125 48.375 36.625 48.25 36.5L47.625 35.75L47.875 34.875C47.875 34.875 48.75 32.125 48.75 28.375C48.75 25.25 47 22.375 45.125 22.375H44.125L43.625 21.5C43.25 20.875 41.75 20.25 39.75 20.25C34.125 20.25 30.75 23.25 30.75 28.375C30.75 30.75 31.625 34.625 31.625 34.625L31.875 35.5L31.25 36.125C31.25 36.125 30.75 36.75 30.75 37.375C30.75 38.25 31.875 39.375 32.375 39.875L33 40.375V41.25C33 44 35.375 45.5 35.375 45.5L36.125 46V50.5C36.125 54.625 31.5 56.75 27.375 58.5C25.625 59.5 23 60.75 22.5 61.625Z" fill="#C0D1DC"/>
</svg>
